<svg version="1.1" id="Layer_1" xmlns="http://www.w3.org/2000/svg" x="0" y="0" viewBox="0 0 128 128" style="enable-background:new 0 0 128 128" xml:space="preserve"><style>.st1{fill:#91def5}.st6{fill:#746887}.st7{fill:#f98770}</style><path d="M114.5 17.999h-101c-6.627 0-12 5.367-12 11.987v80.016l17.805-13.688a12.01 12.01 0 0 1 7.2-2.397H114.5c6.6 0 12-5.394 12-11.987V29.986c0-6.621-5.373-11.987-12-11.987z" style="fill:#cff1fb"/><path d="M60.364 40.925h-4.619l1.235-4.687a1.708 1.708 0 0 0-1.653-2.142h-5.58a1.71 1.71 0 0 0-1.653 1.273l-1.464 5.556H35.238l1.235-4.687a1.708 1.708 0 0 0-1.653-2.142h-5.58a1.71 1.71 0 0 0-1.653 1.273l-1.464 5.556h-5.518a1.71 1.71 0 0 0-1.653 1.273l-1.499 5.69a1.708 1.708 0 0 0 1.653 2.142h4.619l-2.998 11.38h-5.518a1.71 1.71 0 0 0-1.653 1.273l-1.499 5.69a1.707 1.707 0 0 0 1.653 2.141h4.619l-1.235 4.687a1.707 1.707 0 0 0 1.653 2.141h5.58a1.71 1.71 0 0 0 1.653-1.273l1.464-5.556h11.393L37.602 75.2a1.707 1.707 0 0 0 1.653 2.141h5.58a1.71 1.71 0 0 0 1.653-1.273l1.464-5.556h5.518a1.71 1.71 0 0 0 1.653-1.273l1.499-5.69a1.707 1.707 0 0 0-1.653-2.141H50.35l2.998-11.38h5.518a1.71 1.71 0 0 0 1.653-1.273l1.499-5.69a1.708 1.708 0 0 0-1.654-2.14zM43.668 52.171l-2.099 7.966a1.709 1.709 0 0 1-1.653 1.273h-7.859a1.708 1.708 0 0 1-1.653-2.141l2.099-7.966a1.709 1.709 0 0 1 1.653-1.273h7.859a1.707 1.707 0 0 1 1.653 2.141z" style="fill:#ffcfb8"/><ellipse class="st1" cx="71.704" cy="57.872" rx="5.778" ry="5.771"/><ellipse class="st1" cx="90.963" cy="57.872" rx="5.778" ry="5.771"/><ellipse class="st1" cx="110.222" cy="57.872" rx="5.778" ry="5.771"/><g><path class="st6" d="M99.376 92.417H26.505c-2.901 0-5.778.958-8.115 2.709L3 106.958V29.985c0-5.784 4.71-10.489 10.5-10.489h8.325a1.499 1.499 0 1 0 0-2.996H13.5C6.056 16.5 0 22.549 0 29.985v80.016a1.497 1.497 0 0 0 1.5 1.498c.325 0 .647-.105.915-.311l17.79-13.676a10.575 10.575 0 0 1 6.3-2.098h72.872a1.499 1.499 0 1 0-.001-2.997zM114.5 16.5H29.446a1.499 1.499 0 1 0 0 2.996H114.5c5.79 0 10.5 4.705 10.5 10.489v51.943c0 5.784-4.71 10.489-10.5 10.489h-7.443a1.499 1.499 0 1 0 0 2.996h7.443c7.444 0 13.5-6.049 13.5-13.485V29.985c0-7.436-6.056-13.485-13.5-13.485z"/><path class="st7" d="M60.364 39.427h-2.673l.74-2.807a3.18 3.18 0 0 0-.562-2.772 3.19 3.19 0 0 0-2.542-1.249h-5.58a3.21 3.21 0 0 0-3.103 2.389l-1.169 4.439h-8.291l.739-2.807a3.18 3.18 0 0 0-.562-2.772 3.187 3.187 0 0 0-2.542-1.249h-5.58a3.212 3.212 0 0 0-3.104 2.389l-1.169 4.439h-4.362a3.211 3.211 0 0 0-3.104 2.389l-1.499 5.69c-.255.97-.05 1.98.562 2.773a3.187 3.187 0 0 0 2.542 1.249h2.673l-2.209 8.383h-4.362a3.212 3.212 0 0 0-3.104 2.39l-1.499 5.69c-.255.969-.05 1.979.562 2.772s1.539 1.249 2.542 1.249h2.673l-.739 2.807a3.18 3.18 0 0 0 .562 2.772 3.187 3.187 0 0 0 2.542 1.249h5.58a3.212 3.212 0 0 0 3.104-2.39l1.169-4.439h8.291l-.74 2.807a3.18 3.18 0 0 0 .562 2.772 3.19 3.19 0 0 0 2.542 1.249h5.58a3.212 3.212 0 0 0 3.104-2.39l1.169-4.439h4.362a3.21 3.21 0 0 0 3.103-2.39l1.499-5.69a3.18 3.18 0 0 0-.562-2.772 3.188 3.188 0 0 0-2.541-1.249h-2.673l2.208-8.383h4.362a3.212 3.212 0 0 0 3.104-2.39l1.499-5.69a3.18 3.18 0 0 0-.562-2.772 3.193 3.193 0 0 0-2.542-1.247zm.154 9.33h.01-.01zm-1.451-.382a.209.209 0 0 1-.202.156h-5.519a1.5 1.5 0 0 0-1.451 1.117l-2.998 11.38a1.497 1.497 0 0 0 1.451 1.879h4.619c.068 0 .124.027.165.081a.2.2 0 0 1 .037.18l-1.499 5.691a.208.208 0 0 1-.202.155H47.95a1.5 1.5 0 0 0-1.451 1.117l-1.463 5.555a.209.209 0 0 1-.202.156h-5.58a.201.201 0 0 1-.166-.081.2.2 0 0 1-.037-.18l1.235-4.687a1.497 1.497 0 0 0-1.451-1.879H27.443a1.5 1.5 0 0 0-1.451 1.117l-1.463 5.555a.209.209 0 0 1-.202.156h-5.58c-.068 0-.124-.027-.165-.081s-.054-.115-.037-.18l1.234-4.687a1.497 1.497 0 0 0-1.451-1.879H13.71a.201.201 0 0 1-.166-.081.2.2 0 0 1-.037-.18l1.499-5.69a.209.209 0 0 1 .202-.156h5.518a1.5 1.5 0 0 0 1.451-1.117l2.999-11.38a1.497 1.497 0 0 0-1.451-1.879h-4.619a.201.201 0 0 1-.166-.081.2.2 0 0 1-.037-.181l1.499-5.69a.208.208 0 0 1 .202-.155h5.519a1.5 1.5 0 0 0 1.451-1.117l1.463-5.555a.209.209 0 0 1 .203-.156h5.58c.068 0 .124.027.165.081a.199.199 0 0 1 .037.18l-1.234 4.687a1.497 1.497 0 0 0 1.451 1.879h11.393a1.5 1.5 0 0 0 1.451-1.117l1.464-5.556a.208.208 0 0 1 .202-.155h5.58c.068 0 .124.027.166.081a.2.2 0 0 1 .037.18l-1.235 4.687a1.497 1.497 0 0 0 1.451 1.879h4.619c.068 0 .124.027.166.081a.196.196 0 0 1 .036.18l-1.502 5.69z"/><path class="st7" d="M42.016 48.532h-7.858a3.212 3.212 0 0 0-3.104 2.389l-2.099 7.967a3.18 3.18 0 0 0 .562 2.772 3.19 3.19 0 0 0 2.542 1.249h7.858a3.212 3.212 0 0 0 3.104-2.39l2.099-7.966a3.18 3.18 0 0 0-.562-2.772 3.186 3.186 0 0 0-2.542-1.249zm-1.897 11.224a.209.209 0 0 1-.202.156h-7.858a.201.201 0 0 1-.166-.081.2.2 0 0 1-.037-.18l2.098-7.966a.209.209 0 0 1 .203-.156h7.858c.068 0 .124.027.166.081a.196.196 0 0 1 .036.18l-2.098 7.966z"/><path class="st6" d="M71.704 50.602c-4.013 0-7.278 3.261-7.278 7.269 0 4.009 3.265 7.27 7.278 7.27s7.278-3.261 7.278-7.27c-.001-4.007-3.265-7.269-7.278-7.269zm0 11.544a4.28 4.28 0 0 1-4.278-4.274c0-2.356 1.919-4.273 4.278-4.273s4.278 1.917 4.278 4.273a4.282 4.282 0 0 1-4.278 4.274zM90.963 50.602c-4.013 0-7.278 3.261-7.278 7.269 0 4.009 3.265 7.27 7.278 7.27s7.278-3.261 7.278-7.27c0-4.007-3.265-7.269-7.278-7.269zm0 11.544a4.28 4.28 0 0 1-4.278-4.274c0-2.356 1.919-4.273 4.278-4.273s4.278 1.917 4.278 4.273a4.28 4.28 0 0 1-4.278 4.274zM110.222 50.602c-4.013 0-7.278 3.261-7.278 7.269 0 4.009 3.265 7.27 7.278 7.27s7.278-3.261 7.278-7.27c0-4.007-3.265-7.269-7.278-7.269zm0 11.544a4.28 4.28 0 0 1-4.278-4.274c0-2.356 1.919-4.273 4.278-4.273s4.278 1.917 4.278 4.273a4.28 4.28 0 0 1-4.278 4.274z"/></g></svg>
